<?xml version="1.0" encoding="UTF-8"?>
<svg id="Layer_1" data-name="Layer 1" xmlns="http://www.w3.org/2000/svg" viewBox="0 0 580.89 105.54">
  <defs>
    <style>
      .cls-1 {
        fill: #fff;
        stroke: #fff;
        stroke-miterlimit: 10;
        stroke-width: 2px;
      }
    </style>
  </defs>
  <path class="cls-1" d="M7.48,103.53c-2.11,0-3.72-.55-4.82-1.66-1.1-1.1-1.66-2.71-1.66-4.82V8.49c0-2.11.55-3.72,1.66-4.82,1.1-1.1,2.71-1.66,4.82-1.66h34.13c7.01,0,12.94,1.03,17.78,3.1,4.85,2.07,8.57,5.06,11.16,9,2.59,3.94,3.89,8.74,3.89,14.4,0,6.34-1.85,11.62-5.54,15.84-3.7,4.23-8.71,7.01-15.05,8.35v-2.02c7.2.86,12.84,3.46,16.92,7.78,4.08,4.32,6.12,10.03,6.12,17.14,0,9.02-2.93,15.94-8.78,20.74-5.86,4.8-14.11,7.2-24.77,7.2H7.48ZM12.52,47.37h27.36c7.49,0,13.18-1.53,17.06-4.61,3.89-3.07,5.83-7.49,5.83-13.25s-1.94-10.44-5.83-13.46c-3.89-3.02-9.58-4.54-17.06-4.54H12.52v35.86ZM12.52,94.02h29.66c7.68,0,13.44-1.53,17.28-4.61,3.84-3.07,5.76-7.73,5.76-13.97s-1.92-11.02-5.76-14.04c-3.84-3.02-9.6-4.54-17.28-4.54H12.52v37.15Z"/>
  <path class="cls-1" d="M104.25,104.54c-1.92,0-3.38-.55-4.39-1.66s-1.51-2.61-1.51-4.54V7.19c0-2.02.5-3.55,1.51-4.61,1.01-1.06,2.47-1.58,4.39-1.58s3.38.53,4.39,1.58c1.01,1.06,1.51,2.59,1.51,4.61v91.15c0,1.92-.48,3.43-1.44,4.54-.96,1.1-2.45,1.66-4.46,1.66Z"/>
  <path class="cls-1" d="M135.21,103.53c-1.54,0-2.79-.31-3.74-.94-.96-.62-1.63-1.49-2.02-2.59-.38-1.1-.41-2.35-.07-3.74.34-1.39,1.08-2.81,2.23-4.25L191.51,7.62v4.61h-57.17c-1.82,0-3.22-.45-4.18-1.37-.96-.91-1.44-2.18-1.44-3.82s.48-2.88,1.44-3.74c.96-.86,2.35-1.3,4.18-1.3h62.5c1.54,0,2.81.31,3.82.94,1.01.63,1.68,1.46,2.02,2.52.34,1.06.34,2.3,0,3.74-.34,1.44-1.03,2.88-2.09,4.32l-59.9,84.24v-4.46h59.18c1.82,0,3.21.43,4.18,1.3.96.86,1.44,2.11,1.44,3.74,0,1.73-.48,3.02-1.44,3.89-.96.86-2.35,1.3-4.18,1.3h-64.66Z"/>
  <path class="cls-1" d="M250.55,104.54c-1.82,0-3.26-.55-4.32-1.66-1.06-1.1-1.58-2.61-1.58-4.54V12.23h-32.4c-1.73,0-3.07-.48-4.03-1.44-.96-.96-1.44-2.21-1.44-3.74,0-1.63.48-2.88,1.44-3.74.96-.86,2.3-1.3,4.03-1.3h76.75c1.73,0,3.07.43,4.03,1.3.96.86,1.44,2.11,1.44,3.74s-.48,2.9-1.44,3.82c-.96.91-2.3,1.37-4.03,1.37h-32.4v86.11c0,1.92-.5,3.43-1.51,4.54s-2.52,1.66-4.54,1.66Z"/>
  <path class="cls-1" d="M312.32,104.54c-1.92,0-3.38-.55-4.39-1.66s-1.51-2.61-1.51-4.54V8.06c0-2.02.53-3.53,1.58-4.54,1.05-1.01,2.54-1.51,4.46-1.51h34.13c10.85,0,19.2,2.54,25.06,7.63,5.85,5.09,8.78,12.34,8.78,21.74,0,5.95-1.32,11.11-3.96,15.48-2.64,4.37-6.5,7.68-11.59,9.94-5.09,2.26-11.18,3.38-18.29,3.38l1.44-1.87h2.88c3.74,0,7.01.96,9.79,2.88,2.78,1.92,5.33,4.99,7.63,9.22l13.82,25.78c.77,1.35,1.13,2.66,1.08,3.96-.05,1.3-.5,2.35-1.37,3.17-.86.81-2.11,1.22-3.74,1.22s-2.98-.38-4.03-1.15c-1.06-.77-1.97-1.87-2.74-3.31l-15.7-29.09c-2.21-4.13-4.75-6.89-7.63-8.28-2.88-1.39-6.67-2.09-11.38-2.09h-18.43v37.73c0,1.92-.48,3.43-1.44,4.54-.96,1.1-2.45,1.66-4.46,1.66ZM318.23,51.26h26.64c7.87,0,13.82-1.66,17.86-4.97,4.03-3.31,6.05-8.28,6.05-14.9s-2.02-11.3-6.05-14.62c-4.03-3.31-9.99-4.97-17.86-4.97h-26.64v39.46Z"/>
  <path class="cls-1" d="M399.01,104.54c-1.54,0-2.76-.36-3.67-1.08-.91-.72-1.44-1.68-1.58-2.88-.14-1.2.12-2.57.79-4.1L434.15,6.33c.86-1.92,1.89-3.29,3.1-4.1,1.2-.81,2.52-1.22,3.96-1.22s2.76.41,3.96,1.22c1.2.82,2.18,2.19,2.95,4.1l39.74,90.14c.77,1.54,1.08,2.93.94,4.18-.14,1.25-.65,2.21-1.51,2.88-.86.67-2.07,1.01-3.6,1.01-1.73,0-3.12-.46-4.18-1.37-1.06-.91-1.92-2.23-2.59-3.96l-10.66-24.62,5.76,3.02h-61.92l5.9-3.02-10.51,24.62c-.86,1.83-1.78,3.17-2.74,4.03-.96.86-2.21,1.3-3.74,1.3ZM441.06,15.83l-23.18,54.58-3.46-2.74h53.28l-3.17,2.74-23.18-54.58h-.29Z"/>
  <path class="cls-1" d="M512.05,104.54c-1.92,0-3.38-.55-4.39-1.66s-1.51-2.61-1.51-4.54V7.05c0-2.02.5-3.53,1.51-4.54,1.01-1.01,2.47-1.51,4.39-1.51s3.38.5,4.39,1.51c1.01,1.01,1.51,2.52,1.51,4.54v41.04h.29l46.94-43.78c1.15-1.15,2.3-1.99,3.46-2.52,1.15-.53,2.4-.79,3.74-.79,1.82,0,3.14.43,3.96,1.3.82.86,1.13,1.92.94,3.17-.19,1.25-.86,2.45-2.02,3.6l-49.1,45.5.14-6.34,51.26,47.38c1.44,1.35,2.21,2.71,2.3,4.1.09,1.39-.31,2.54-1.22,3.46-.91.91-2.28,1.37-4.1,1.37-1.44,0-2.66-.31-3.67-.94s-2.14-1.56-3.38-2.81l-49.25-45.07h-.29v42.62c0,1.92-.48,3.43-1.44,4.54-.96,1.1-2.45,1.66-4.46,1.66Z"/>
</svg>