<?xml version="1.0" encoding="UTF-8"?>
<svg id="Layer_1" data-name="Layer 1" xmlns="http://www.w3.org/2000/svg" viewBox="0 0 363.26 86.61">
  <defs>
    <style>
      .cls-1 {
        fill: #fff;
        stroke-width: 0px;
      }
    </style>
  </defs>
  <g>
    <path class="cls-1" d="M0,66.7V0h19c6.67,0,11.7,1.53,15.1,4.59,3.4,3.06,5.1,7.19,5.1,12.38,0,4.26-1.22,7.54-3.65,9.83-2.43,2.3-5.55,3.78-9.35,4.44,1.87.2,3.78.63,5.75,1.3,1.97.67,3.73,1.65,5.3,2.96,1.57,1.3,2.85,2.97,3.85,5.01,1,2.04,1.5,4.56,1.5,7.56s-.48,5.46-1.45,7.76c-.97,2.3-2.3,4.26-4,5.86-1.7,1.6-3.75,2.84-6.15,3.7-2.4.87-5,1.3-7.8,1.3H0ZM8,28.3h10.3c4,0,7.08-1.07,9.25-3.2,2.17-2.13,3.25-4.93,3.25-8.4,0-6.53-3.83-9.8-11.5-9.8h-11.3v21.4ZM8,59.8h14.8c3.4,0,6.13-.98,8.2-2.95,2.07-1.97,3.1-4.95,3.1-8.95,0-8.47-5.17-12.7-15.5-12.7h-10.6v24.6Z"/>
    <path class="cls-1" d="M56.4,11.4c-1.4,0-2.6-.55-3.6-1.65-1-1.1-1.5-2.45-1.5-4.05s.5-2.87,1.5-4c1-1.13,2.2-1.7,3.6-1.7s2.6.57,3.6,1.7c1,1.13,1.5,2.47,1.5,4s-.5,2.95-1.5,4.05c-1,1.1-2.2,1.65-3.6,1.65ZM52.5,66.7V19h7.8v47.7h-7.8Z"/>
    <path class="cls-1" d="M71.2,66.7v-7.5l28.4-33.9h-27.3v-6.3h35.2v7.9l-28.5,33.5h29.2v6.3h-37Z"/>
    <path class="cls-1" d="M134,66.7V6.9h-20.7V0h49.3v6.9h-20.7v59.8h-7.9Z"/>
    <path class="cls-1" d="M162.4,66.7V19h7l.6,4.2c1.27-1.33,2.9-2.57,4.9-3.7,2-1.13,4.03-1.7,6.1-1.7,1.47,0,2.82.1,4.05.3,1.23.2,2.18.4,2.85.6l-1.4,7.1c-1.67-.73-3.77-1.1-6.3-1.1-1.93,0-3.78.53-5.55,1.6-1.77,1.07-3.29,2.17-4.55,3.3v37.1h-7.7Z"/>
    <path class="cls-1" d="M220.1,66.7l-.4-4.1c-1.67,1.67-3.58,2.95-5.75,3.85-2.17.9-4.55,1.35-7.15,1.35-2.07,0-4.08-.32-6.05-.95-1.97-.63-3.7-1.57-5.2-2.8-1.5-1.23-2.72-2.78-3.65-4.65-.93-1.87-1.4-4.03-1.4-6.5,0-3.4.92-6.2,2.75-8.4,1.83-2.2,4.15-3.95,6.95-5.25s5.9-2.22,9.3-2.75c3.4-.53,6.7-.8,9.9-.8v-.6c0-4-.85-6.87-2.55-8.6-1.7-1.73-4.15-2.6-7.35-2.6-2.2,0-4.22.48-6.05,1.45-1.83.97-3.38,2.25-4.65,3.85l-5.4-3.8c1.93-2.6,4.22-4.52,6.85-5.75,2.63-1.23,5.95-1.85,9.95-1.85,5.33,0,9.48,1.37,12.45,4.1,2.97,2.73,4.45,7.3,4.45,13.7v31.1h-7ZM219.4,41.8c-2.2.07-4.53.23-7,.5-2.47.27-4.75.79-6.85,1.55-2.1.77-3.83,1.88-5.2,3.35-1.37,1.47-2.05,3.4-2.05,5.8,0,1.53.3,2.83.9,3.9.6,1.07,1.35,1.95,2.25,2.65.9.7,1.9,1.2,3,1.5,1.1.3,2.18.45,3.25.45,2.33,0,4.48-.48,6.45-1.45,1.97-.96,3.72-2.12,5.25-3.45v-14.8Z"/>
    <path class="cls-1" d="M240.6,66.7V0h7.7v37.1l19.3-18.1h9.8l-16.3,15.4,20.5,32.3h-8.9l-17.3-27-7.1,6.5v20.5h-7.7Z"/>
  </g>
  <rect class="cls-1" x="52.53" y="66.61" width="8" height="20"/>
  <rect class="cls-1" x="60.53" y="78.61" width="221" height="8"/>
  <rect class="cls-1" x="262.53" y="46.61" width="85" height="8" transform="translate(75.89 258.21) rotate(-51.6)"/>
  <rect class="cls-1" x="321.53" y="26.61" width="44" height="8" transform="translate(93.33 -206.78) rotate(38.4)"/>
</svg>